<svg width="900" height="600" viewBox="0 0 900 600" fill="none" xmlns="http://www.w3.org/2000/svg">
  <g clip-path="url(#clip0_509_366)">
    <path
      d="M0 339L21.5 343.8C43 348.7 86 358.3 128.8 358.8C171.7 359.3 214.3 350.7 257.2 349C300 347.3 343 352.7 385.8 358.5C428.7 364.3 471.3 370.7 514.2 367.7C557 364.7 600 352.3 642.8 346.8C685.7 341.3 728.3 342.7 771.2 341.3C814 340 857 336 878.5 334L900 332V601H878.5C857 601 814 601 771.2 601C728.3 601 685.7 601 642.8 601C600 601 557 601 514.2 601C471.3 601 428.7 601 385.8 601C343 601 300 601 257.2 601C214.3 601 171.7 601 128.8 601C86 601 43 601 21.5 601H0V339Z"
      fill="#FCC0DF" />
    <path
      d="M0 416L21.5 410.3C43 404.7 86 393.3 128.8 391.7C171.7 390 214.3 398 257.2 397.7C300 397.3 343 388.7 385.8 391.7C428.7 394.7 471.3 409.3 514.2 413.2C557 417 600 410 642.8 407.7C685.7 405.3 728.3 407.7 771.2 406.8C814 406 857 402 878.5 400L900 398V601H878.5C857 601 814 601 771.2 601C728.3 601 685.7 601 642.8 601C600 601 557 601 514.2 601C471.3 601 428.7 601 385.8 601C343 601 300 601 257.2 601C214.3 601 171.7 601 128.8 601C86 601 43 601 21.5 601H0V416Z"
      fill="#FBAED5" />
    <path
      d="M0 435L21.5 434.3C43 433.7 86 432.3 128.8 436.5C171.7 440.7 214.3 450.3 257.2 455.8C300 461.3 343 462.7 385.8 457.8C428.7 453 471.3 442 514.2 439.7C557 437.3 600 443.7 642.8 445.7C685.7 447.7 728.3 445.3 771.2 443C814 440.7 857 438.3 878.5 437.2L900 436V601H878.5C857 601 814 601 771.2 601C728.3 601 685.7 601 642.8 601C600 601 557 601 514.2 601C471.3 601 428.7 601 385.8 601C343 601 300 601 257.2 601C214.3 601 171.7 601 128.8 601C86 601 43 601 21.5 601H0V435Z"
      fill="#F99BCB" />
    <path
      d="M0 499L21.5 502.5C43 506 86 513 128.8 509.7C171.7 506.3 214.3 492.7 257.2 493.2C300 493.7 343 508.3 385.8 514.8C428.7 521.3 471.3 519.7 514.2 516.7C557 513.7 600 509.3 642.8 511C685.7 512.7 728.3 520.3 771.2 524.2C814 528 857 528 878.5 528H900V601H878.5C857 601 814 601 771.2 601C728.3 601 685.7 601 642.8 601C600 601 557 601 514.2 601C471.3 601 428.7 601 385.8 601C343 601 300 601 257.2 601C214.3 601 171.7 601 128.8 601C86 601 43 601 21.5 601H0V499Z"
      fill="#F787C1" />
    <path
      d="M0 556L21.5 556.3C43 556.7 86 557.3 128.8 558.8C171.7 560.3 214.3 562.7 257.2 556.2C300 549.7 343 534.3 385.8 528.5C428.7 522.7 471.3 526.3 514.2 535.2C557 544 600 558 642.8 559.5C685.7 561 728.3 550 771.2 548.2C814 546.3 857 553.7 878.5 557.3L900 561V601H878.5C857 601 814 601 771.2 601C728.3 601 685.7 601 642.8 601C600 601 557 601 514.2 601C471.3 601 428.7 601 385.8 601C343 601 300 601 257.2 601C214.3 601 171.7 601 128.8 601C86 601 43 601 21.5 601H0V556Z"
      fill="#F472B6" />
  </g>
  <defs>
    <clipPath id="clip0_509_366">
      <rect width="900" height="600" fill="white" />
    </clipPath>
  </defs>
</svg>