<svg width="64" height="64" viewBox="0 0 724 724" fill="none" xmlns="http://www.w3.org/2000/svg">
  <path
    d="M377.739 713.507C568.974 713.507 724 558.481 724 367.246C724 176.012 568.974 20.9854 377.739 20.9854C186.505 20.9854 31.4785 176.012 31.4785 367.246C31.4785 558.481 186.505 713.507 377.739 713.507Z"
    fill="url(#paint0_linear_506_337)" />
  <path
    d="M377.74 661.043C539.999 661.043 671.537 529.506 671.537 367.246C671.537 204.987 539.999 73.4492 377.74 73.4492C215.48 73.4492 83.9424 204.987 83.9424 367.246C83.9424 529.506 215.48 661.043 377.74 661.043Z"
    fill="url(#paint1_linear_506_337)" stroke="white" stroke-width="25" />
  <path fill-rule="evenodd" clip-rule="evenodd"
    d="M20.9854 10.4927H73.4491H251.826H308.898C416.457 10.4927 503.652 97.687 503.652 205.247C503.652 312.807 416.457 400.001 308.898 400.001H251.826V640.058V713.507H199.362H73.4491H20.9854L73.4491 640.058V400.001V83.942L20.9854 10.4927Z"
    fill="url(#paint2_linear_506_337)" />
  <path
    d="M20.9851 10.4928V0H0.595703L12.4468 16.5916L20.9851 10.4928ZM251.826 400.001V389.508H241.333V400.001H251.826ZM251.826 713.507V724H262.318V713.507H251.826ZM20.9851 713.507L12.4468 707.409L0.595703 724H20.9851V713.507ZM73.4489 640.058L81.9871 646.156L83.9416 643.421V640.058H73.4489ZM73.4489 83.942H83.9416V80.5794L81.9871 77.8432L73.4489 83.942ZM73.4489 0H20.9851V20.9855H73.4489V0ZM251.826 0H73.4489V20.9855H251.826V0ZM308.898 0H251.826V20.9855H308.898V0ZM514.144 205.247C514.144 91.8921 422.252 0 308.898 0V20.9855C410.663 20.9855 493.159 103.482 493.159 205.247H514.144ZM308.898 410.493C422.252 410.493 514.144 318.601 514.144 205.247H493.159C493.159 307.012 410.663 389.508 308.898 389.508V410.493ZM251.826 410.493H308.898V389.508H251.826V410.493ZM262.318 640.058V400.001H241.333V640.058H262.318ZM262.318 713.507V640.058H241.333V713.507H262.318ZM199.362 724H251.826V703.015H199.362V724ZM73.4489 724H199.362V703.015H73.4489V724ZM20.9851 724H73.4489V703.015H20.9851V724ZM64.9106 633.96L12.4468 707.409L29.5234 719.606L81.9871 646.156L64.9106 633.96ZM62.9561 400.001V640.058H83.9416V400.001H62.9561ZM62.9561 83.942V400.001H83.9416V83.942H62.9561ZM12.4468 16.5916L64.9106 90.0408L81.9871 77.8432L29.5234 4.39397L12.4468 16.5916Z"
    fill="white" />
  <defs>
    <linearGradient id="paint0_linear_506_337" x1="412.365" y1="20.5" x2="460.339" y2="710.658"
      gradientUnits="userSpaceOnUse">
      <stop stop-color="#F472B6" />
      <stop offset="1" stop-color="#1D4ED8" />
    </linearGradient>
    <linearGradient id="paint1_linear_506_337" x1="407.119" y1="73.0374" x2="447.824" y2="658.626"
      gradientUnits="userSpaceOnUse">
      <stop stop-color="#F472B6" />
      <stop offset="1" stop-color="#1D4ED8" />
    </linearGradient>
    <linearGradient id="paint2_linear_506_337" x1="286.452" y1="10" x2="357.004" y2="706.857"
      gradientUnits="userSpaceOnUse">
      <stop stop-color="#F472B6" />
      <stop offset="1" stop-color="#1D4ED8" />
    </linearGradient>
  </defs>
</svg>