<svg width="28" height="28" viewBox="0 0 24 24" fill="none" xmlns="http://www.w3.org/2000/svg">
  <path
    d="M15.9085 19.2167L12.0696 22.9327C12.0308 22.9702 11.9692 22.9702 11.9305 22.9327L8.09153 19.2167C8.08825 19.2135 8.08446 19.2113 8.08025 19.2102C6.71754 18.8485 4.72332 17.1232 4.27971 12.8341C4.27915 12.8287 4.2773 12.8234 4.27437 12.8191L3.12089 11.1205C3.11732 11.1152 3.11538 11.1088 3.11538 11.1022V9.09768C3.11538 9.09107 3.11345 9.08464 3.10988 9.07939L2.16896 7.69376C2.16539 7.6885 2.16346 7.68208 2.16346 7.67547V5.82674C2.16346 5.82013 2.16153 5.8137 2.15796 5.80844L1.0055 4.11129C1.00193 4.10604 1 4.09961 1 4.093V1.05057C1 1.02531 1.02597 1.01125 1.04354 1.02698L6.38412 5.80749C6.39051 5.81321 6.39423 5.8219 6.39423 5.83108V7.6555C6.39423 7.67216 6.40624 7.68566 6.42106 7.68566H7.84817C7.86299 7.68566 7.875 7.67114 7.875 7.65449C7.874 4.42253 7.71577 5.0065 6.39915 2.86512C6.39605 2.86008 6.39423 2.85384 6.39423 2.84772V1.03018C6.39423 1.0095 6.41233 0.994957 6.42974 1.00164L11.2415 2.85014C11.2523 2.85431 11.2596 2.86578 11.2596 2.87868V5.73734C11.2596 5.76505 11.2901 5.77809 11.3065 5.75739L11.9216 4.98093C11.9617 4.93039 12.0383 4.93039 12.0784 4.98093L12.6935 5.75739C12.7099 5.77809 12.7404 5.76505 12.7404 5.73734V2.87868C12.7404 2.86578 12.7477 2.85431 12.7585 2.85014L17.5703 1.00164C17.5877 0.994957 17.6058 1.0095 17.6058 1.03018V2.84772C17.6058 2.85384 17.6039 2.86008 17.6009 2.86512C16.2842 5.0065 16.126 4.42253 16.125 7.65449C16.125 7.67114 16.137 7.68566 16.1518 7.68566H17.5789C17.5938 7.68566 17.6058 7.67216 17.6058 7.6555V5.83108C17.6058 5.8219 17.6095 5.81321 17.6159 5.80749L22.9565 1.02698C22.974 1.01125 23 1.02531 23 1.05057V4.093C23 4.09961 22.9981 4.10604 22.9945 4.11129L21.842 5.80844C21.8385 5.8137 21.8365 5.82013 21.8365 5.82674V7.67547C21.8365 7.68208 21.8346 7.6885 21.831 7.69376L20.8901 9.07939C20.8866 9.08464 20.8846 9.09107 20.8846 9.09768V11.1022C20.8846 11.1088 20.8827 11.1152 20.8791 11.1205L19.7256 12.8191C19.7227 12.8234 19.7208 12.8287 19.7203 12.8341C19.2767 17.1232 17.2825 18.8485 15.9198 19.2102C15.9155 19.2113 15.9118 19.2135 15.9085 19.2167Z"
    stroke="currentColor" />
</svg>