<svg width="16" height="16" viewBox="0 0 16 16" fill="none" xmlns="http://www.w3.org/2000/svg">
  <path
    d="M14.7497 8.5925C14.6317 9.86915 14.1526 11.0858 13.3684 12.1001C12.5842 13.1144 11.5273 13.8843 10.3215 14.3199C9.11562 14.7555 7.81067 14.8386 6.55931 14.5596C5.30795 14.2805 4.16193 13.6509 3.25535 12.7443C2.34877 11.8378 1.71914 10.6917 1.44011 9.44037C1.16109 8.18901 1.24422 6.88406 1.67978 5.67822C2.11533 4.47238 2.8853 3.41552 3.89959 2.63131C4.91388 1.8471 6.13053 1.36798 7.40718 1.25C6.65974 2.2612 6.30007 3.50709 6.39358 4.76106C6.48709 6.01503 7.02758 7.19379 7.91673 8.08295C8.80589 8.9721 9.98465 9.51259 11.2386 9.6061C12.4926 9.69961 13.7385 9.33994 14.7497 8.5925Z"
    stroke="currentColor" stroke-width="2" stroke-linecap="round" stroke-linejoin="round" />
</svg>